<svg width="55" height="55" viewBox="0 0 55 55" fill="none" xmlns="http://www.w3.org/2000/svg">
<g clip-path="url(#clip0_278_823)">
<path d="M35.4073 21.0913C34.0264 20.4452 32.5498 19.9756 31.0061 19.7083C30.8165 20.051 30.595 20.512 30.4423 20.8788C28.8013 20.632 27.1754 20.632 25.5645 20.8788C25.4118 20.512 25.1853 20.051 24.994 19.7083C23.4487 19.9756 21.9704 20.4469 20.5894 21.0947C17.8041 25.3038 17.049 29.4083 17.4265 33.4546C19.2739 34.8342 21.0643 35.6722 22.8244 36.2206C23.259 35.6225 23.6466 34.9867 23.9805 34.3166C23.3446 34.075 22.7355 33.7768 22.16 33.4306C22.3127 33.3175 22.462 33.1992 22.6063 33.0775C26.1166 34.7194 29.9305 34.7194 33.3988 33.0775C33.5448 33.1992 33.6941 33.3175 33.8451 33.4306C33.2679 33.7785 32.6572 34.0767 32.0212 34.3183C32.3551 34.9867 32.7411 35.6242 33.1773 36.2223C34.9392 35.6739 36.7312 34.8359 38.5786 33.4546C39.0216 28.7639 37.8219 24.6971 35.4073 21.0913ZM24.4588 30.9662C23.405 30.9662 22.5409 29.9824 22.5409 28.7845C22.5409 27.5866 23.3866 26.6011 24.4588 26.6011C25.531 26.6011 26.3951 27.5848 26.3766 28.7845C26.3783 29.9824 25.531 30.9662 24.4588 30.9662ZM31.5464 30.9662C30.4926 30.9662 29.6285 29.9824 29.6285 28.7845C29.6285 27.5866 30.4742 26.6011 31.5464 26.6011C32.6186 26.6011 33.4827 27.5848 33.4643 28.7845C33.4643 29.9824 32.6186 30.9662 31.5464 30.9662Z" fill="white"/>
</g>
<path d="M39 5H50.5V50.5H39" stroke="white" stroke-opacity="0.5"/>
<path d="M16.5 5H5V50.5H16.5" stroke="white" stroke-opacity="0.5"/>
<defs>
<clipPath id="clip0_278_823">
<rect width="21.3333" height="21.3333" fill="white" transform="translate(17.3359 17.3333)"/>
</clipPath>
</defs>
</svg>
