<svg width="55" height="55" viewBox="0 0 55 55" fill="none" xmlns="http://www.w3.org/2000/svg">
<g clip-path="url(#clip0_278_831)">
<path d="M22.8502 36H18.9802V23.5375H22.8502V36ZM20.9131 21.8375C19.6756 21.8375 18.6719 20.8125 18.6719 19.575C18.6719 18.9806 18.908 18.4105 19.3283 17.9902C19.7486 17.5699 20.3187 17.3337 20.9131 17.3337C21.5075 17.3337 22.0776 17.5699 22.4979 17.9902C22.9182 18.4105 23.1544 18.9806 23.1544 19.575C23.1544 20.8125 22.1502 21.8375 20.9131 21.8375ZM37.3344 36H33.4727V29.9333C33.4727 28.4875 33.4435 26.6333 31.4606 26.6333C29.4485 26.6333 29.1402 28.2042 29.1402 29.8292V36H25.2744V23.5375H28.986V25.2375H29.0402C29.5569 24.2583 30.819 23.225 32.7019 23.225C36.6185 23.225 37.3385 25.8042 37.3385 29.1542V36H37.3344Z" fill="white"/>
</g>
<path d="M39 5H50.5V50.5H39" stroke="white" stroke-opacity="0.5"/>
<path d="M16.5 5H5V50.5H16.5" stroke="white" stroke-opacity="0.5"/>
<defs>
<clipPath id="clip0_278_831">
<rect width="21.3333" height="21.3333" fill="white" transform="translate(17.3359 17.3333)"/>
</clipPath>
</defs>
</svg>
