<svg width="55" height="55" viewBox="0 0 55 55" fill="none" xmlns="http://www.w3.org/2000/svg">
<path d="M38.6085 21.578L35.3892 36.287C35.1463 37.3251 34.5129 37.5835 33.6128 37.0944L28.7076 33.5925L26.3407 35.7979C26.0788 36.0517 25.8597 36.2639 25.3549 36.2639L25.7073 31.424L34.7986 23.465C35.1939 23.1236 34.7129 22.9345 34.1843 23.2759L22.9452 30.1321L18.1067 28.6649C17.0542 28.3465 17.0351 27.6452 18.3257 27.1562L37.2512 20.0923C38.1275 19.7739 38.8942 20.2815 38.6085 21.578Z" fill="white"/>
<path d="M39 5H50.5V50.5H39" stroke="white" stroke-opacity="0.5"/>
<path d="M16.5 5H5V50.5H16.5" stroke="white" stroke-opacity="0.5"/>
</svg>
